<?xml version="1.0" encoding="utf-8"?>
<!-- Generator: Adobe Illustrator 16.0.4, SVG Export Plug-In . SVG Version: 6.00 Build 0)  -->
<!DOCTYPE svg PUBLIC "-//W3C//DTD SVG 1.0//EN" "http://www.w3.org/TR/2001/REC-SVG-20010904/DTD/svg10.dtd">
<svg version="1.0" id="Ebene_1" xmlns="http://www.w3.org/2000/svg" xmlns:xlink="http://www.w3.org/1999/xlink" x="0px" y="0px"
	 width="300px" height="300.016px" viewBox="0 0 300 300.016" enable-background="new 0 0 300 300.016" xml:space="preserve">
<g>
	
		<line fill="none" stroke="#FFFFFF" stroke-linecap="round" stroke-miterlimit="10" x1="196.913" y1="160.009" x2="224.367" y2="109.69"/>
	
		<line fill="none" stroke="#FFFFFF" stroke-linecap="round" stroke-miterlimit="10" x1="224.367" y1="109.69" x2="235.627" y2="167.328"/>
	
		<line fill="none" stroke="#FFFFFF" stroke-linecap="round" stroke-miterlimit="10" x1="196.913" y1="160.009" x2="235.627" y2="167.328"/>
	
		<line fill="none" stroke="#FFFFFF" stroke-linecap="round" stroke-miterlimit="10" x1="235.627" y1="167.328" x2="180.871" y2="206.482"/>
	
		<line fill="none" stroke="#FFFFFF" stroke-linecap="round" stroke-miterlimit="10" x1="196.913" y1="160.009" x2="180.871" y2="206.482"/>
	
		<line fill="none" stroke="#FFFFFF" stroke-linecap="round" stroke-miterlimit="10" x1="180.871" y1="206.482" x2="140.365" y2="171.228"/>
	
		<line fill="none" stroke="#FFFFFF" stroke-linecap="round" stroke-miterlimit="10" x1="196.913" y1="160.009" x2="140.365" y2="171.228"/>
	
		<line fill="none" stroke="#FFFFFF" stroke-linecap="round" stroke-miterlimit="10" x1="140.365" y1="171.228" x2="166.868" y2="114.253"/>
	
		<line fill="none" stroke="#FFFFFF" stroke-linecap="round" stroke-miterlimit="10" x1="196.913" y1="160.009" x2="166.868" y2="114.253"/>
	
		<line fill="none" stroke="#FFFFFF" stroke-linecap="round" stroke-miterlimit="10" x1="166.868" y1="114.253" x2="224.367" y2="109.69"/>
	
		<line fill="none" stroke="#FFFFFF" stroke-linecap="round" stroke-miterlimit="10" x1="224.367" y1="109.69" x2="226.586" y2="60.571"/>
	
		<line fill="none" stroke="#FFFFFF" stroke-linecap="round" stroke-miterlimit="10" x1="226.586" y1="60.571" x2="246.363" y2="157.404"/>
	
		<line fill="none" stroke="#FFFFFF" stroke-linecap="round" stroke-miterlimit="10" x1="235.627" y1="167.328" x2="226.586" y2="60.571"/>
	
		<line fill="none" stroke="#FFFFFF" stroke-linecap="round" stroke-miterlimit="10" x1="235.627" y1="167.328" x2="246.363" y2="157.404"/>
	<path fill="none" stroke="#FFFFFF" stroke-linecap="round" stroke-miterlimit="10" d="M151.652,225.185"/>
	<path fill="none" stroke="#FFFFFF" stroke-linecap="round" stroke-miterlimit="10" d="M246.363,157.404"/>
	<path fill="none" stroke="#FFFFFF" stroke-linecap="round" stroke-miterlimit="10" d="M246.363,157.404"/>
	<path fill="none" stroke="#FFFFFF" stroke-linecap="round" stroke-miterlimit="10" d="M180.871,206.482"/>
	
		<line fill="none" stroke="#FFFFFF" stroke-linecap="round" stroke-miterlimit="10" x1="180.871" y1="206.482" x2="151.652" y2="225.185"/>
	
		<line fill="none" stroke="#FFFFFF" stroke-linecap="round" stroke-miterlimit="10" x1="151.652" y1="225.185" x2="86.56" y2="164.943"/>
	
		<line fill="none" stroke="#FFFFFF" stroke-linecap="round" stroke-miterlimit="10" x1="140.365" y1="171.228" x2="151.652" y2="225.185"/>
	
		<line fill="none" stroke="#FFFFFF" stroke-linecap="round" stroke-miterlimit="10" x1="140.365" y1="171.228" x2="86.56" y2="164.943"/>
	
		<line fill="none" stroke="#FFFFFF" stroke-linecap="round" stroke-miterlimit="10" x1="86.56" y1="164.943" x2="131.668" y2="71.197"/>
	
		<line fill="none" stroke="#FFFFFF" stroke-linecap="round" stroke-miterlimit="10" x1="166.868" y1="114.253" x2="86.56" y2="164.943"/>
	
		<line fill="none" stroke="#FFFFFF" stroke-linecap="round" stroke-miterlimit="10" x1="166.868" y1="114.253" x2="131.668" y2="71.197"/>
	
		<line fill="none" stroke="#FFFFFF" stroke-linecap="round" stroke-miterlimit="10" x1="131.668" y1="71.197" x2="226.586" y2="60.571"/>
	
		<line fill="none" stroke="#FFFFFF" stroke-linecap="round" stroke-miterlimit="10" x1="224.367" y1="109.69" x2="131.668" y2="71.197"/>
	
		<line fill="none" stroke="#FFFFFF" stroke-linecap="round" stroke-miterlimit="10" x1="226.586" y1="60.571" x2="131.668" y2="71.197"/>
	
		<line fill="none" stroke="#FFFFFF" stroke-linecap="round" stroke-miterlimit="10" x1="131.668" y1="71.197" x2="226.586" y2="60.571"/>
	
		<line fill="none" stroke="#FFFFFF" stroke-linecap="round" stroke-miterlimit="10" x1="226.586" y1="60.571" x2="199.573" y2="30.016"/>
	
		<line fill="none" stroke="#FFFFFF" stroke-linecap="round" stroke-miterlimit="10" x1="199.573" y1="30.016" x2="218.51" y2="130.735"/>
	
		<line fill="none" stroke="#FFFFFF" stroke-linecap="round" stroke-miterlimit="10" x1="246.363" y1="157.404" x2="199.573" y2="30.016"/>
	
		<line fill="none" stroke="#FFFFFF" stroke-linecap="round" stroke-miterlimit="10" x1="246.363" y1="157.404" x2="218.51" y2="130.735"/>
	
		<line fill="none" stroke="#FFFFFF" stroke-linecap="round" stroke-miterlimit="10" x1="218.51" y1="130.735" x2="118.507" y2="203.545"/>
	
		<line fill="none" stroke="#FFFFFF" stroke-linecap="round" stroke-miterlimit="10" x1="151.652" y1="225.185" x2="218.51" y2="130.735"/>
	
		<line fill="none" stroke="#FFFFFF" stroke-linecap="round" stroke-miterlimit="10" x1="151.652" y1="225.185" x2="118.507" y2="203.545"/>
	
		<line fill="none" stroke="#FFFFFF" stroke-linecap="round" stroke-miterlimit="10" x1="118.507" y1="203.545" x2="52.477" y2="141.666"/>
	
		<line fill="none" stroke="#FFFFFF" stroke-linecap="round" stroke-miterlimit="10" x1="86.56" y1="164.943" x2="118.507" y2="203.545"/>
	
		<line fill="none" stroke="#FFFFFF" stroke-linecap="round" stroke-miterlimit="10" x1="86.56" y1="164.943" x2="52.477" y2="141.666"/>
	
		<line fill="none" stroke="#FFFFFF" stroke-linecap="round" stroke-miterlimit="10" x1="52.477" y1="141.666" x2="101.086" y2="43.275"/>
	
		<line fill="none" stroke="#FFFFFF" stroke-linecap="round" stroke-miterlimit="10" x1="131.668" y1="71.197" x2="52.477" y2="141.666"/>
	
		<line fill="none" stroke="#FFFFFF" stroke-linecap="round" stroke-miterlimit="10" x1="131.668" y1="71.197" x2="101.086" y2="43.275"/>
	
		<line fill="none" stroke="#FFFFFF" stroke-linecap="round" stroke-miterlimit="10" x1="101.086" y1="43.275" x2="199.573" y2="30.016"/>
	
		<line fill="none" stroke="#FFFFFF" stroke-linecap="round" stroke-miterlimit="10" x1="226.586" y1="60.571" x2="101.086" y2="43.275"/>
	
		<line fill="none" stroke="#FFFFFF" stroke-linecap="round" stroke-miterlimit="10" x1="199.573" y1="30.016" x2="101.086" y2="43.275"/>
	
		<line fill="none" stroke="#FFFFFF" stroke-linecap="round" stroke-miterlimit="10" x1="101.086" y1="43.275" x2="199.573" y2="30.016"/>
	
		<line fill="none" stroke="#FFFFFF" stroke-linecap="round" stroke-miterlimit="10" x1="199.573" y1="30.016" x2="149.599" y2="33.668"/>
	
		<line fill="none" stroke="#FFFFFF" stroke-linecap="round" stroke-miterlimit="10" x1="149.599" y1="33.668" x2="159.055" y2="97.59"/>
	
		<line fill="none" stroke="#FFFFFF" stroke-linecap="round" stroke-miterlimit="10" x1="218.51" y1="130.735" x2="149.599" y2="33.668"/>
	
		<line fill="none" stroke="#FFFFFF" stroke-linecap="round" stroke-miterlimit="10" x1="218.51" y1="130.735" x2="159.055" y2="97.59"/>
	
		<line fill="none" stroke="#FFFFFF" stroke-linecap="round" stroke-miterlimit="10" x1="159.055" y1="97.59" x2="96.166" y2="144.698"/>
	
		<line fill="none" stroke="#FFFFFF" stroke-linecap="round" stroke-miterlimit="10" x1="118.507" y1="203.545" x2="159.055" y2="97.59"/>
	
		<line fill="none" stroke="#FFFFFF" stroke-linecap="round" stroke-miterlimit="10" x1="118.507" y1="203.545" x2="96.166" y2="144.698"/>
	
		<line fill="none" stroke="#FFFFFF" stroke-linecap="round" stroke-miterlimit="10" x1="96.166" y1="144.698" x2="53.883" y2="107.224"/>
	
		<line fill="none" stroke="#FFFFFF" stroke-linecap="round" stroke-miterlimit="10" x1="52.477" y1="141.666" x2="96.166" y2="144.698"/>
	
		<line fill="none" stroke="#FFFFFF" stroke-linecap="round" stroke-miterlimit="10" x1="52.477" y1="141.666" x2="53.883" y2="107.224"/>
	
		<line fill="none" stroke="#FFFFFF" stroke-linecap="round" stroke-miterlimit="10" x1="53.883" y1="107.224" x2="86.229" y2="42.337"/>
	
		<line fill="none" stroke="#FFFFFF" stroke-linecap="round" stroke-miterlimit="10" x1="101.086" y1="43.275" x2="53.883" y2="107.224"/>
	
		<line fill="none" stroke="#FFFFFF" stroke-linecap="round" stroke-miterlimit="10" x1="101.086" y1="43.275" x2="86.229" y2="42.337"/>
	
		<line fill="none" stroke="#FFFFFF" stroke-linecap="round" stroke-miterlimit="10" x1="86.229" y1="42.337" x2="149.599" y2="33.668"/>
	<path fill="none" stroke="#FFFFFF" stroke-linecap="round" stroke-miterlimit="10" d="M86.229,42.337"/>
	<path fill="none" stroke="#FFFFFF" stroke-linecap="round" stroke-miterlimit="10" d="M199.573,30.016"/>
	
		<line fill="none" stroke="#FFFFFF" stroke-linecap="round" stroke-miterlimit="10" x1="149.599" y1="33.668" x2="86.229" y2="42.337"/>
	
		<line fill="none" stroke="#FFFFFF" stroke-linecap="round" stroke-miterlimit="10" x1="86.229" y1="42.337" x2="149.599" y2="33.668"/>
	
		<line fill="none" stroke="#FFFFFF" stroke-linecap="round" stroke-miterlimit="10" x1="149.599" y1="33.668" x2="159.055" y2="97.59"/>
	
		<line fill="none" stroke="#FFFFFF" stroke-linecap="round" stroke-miterlimit="10" x1="149.599" y1="33.668" x2="96.731" y2="74.657"/>
	
		<line fill="none" stroke="#FFFFFF" stroke-linecap="round" stroke-miterlimit="10" x1="159.055" y1="97.59" x2="96.166" y2="144.698"/>
	
		<line fill="none" stroke="#FFFFFF" stroke-linecap="round" stroke-miterlimit="10" x1="159.055" y1="97.59" x2="96.731" y2="74.657"/>
	
		<line fill="none" stroke="#FFFFFF" stroke-linecap="round" stroke-miterlimit="10" x1="96.166" y1="144.698" x2="53.883" y2="107.224"/>
	
		<line fill="none" stroke="#FFFFFF" stroke-linecap="round" stroke-miterlimit="10" x1="96.166" y1="144.698" x2="96.731" y2="74.657"/>
	
		<line fill="none" stroke="#FFFFFF" stroke-linecap="round" stroke-miterlimit="10" x1="53.883" y1="107.224" x2="86.229" y2="42.337"/>
	
		<line fill="none" stroke="#FFFFFF" stroke-linecap="round" stroke-miterlimit="10" x1="53.883" y1="107.224" x2="96.731" y2="74.657"/>
	<path fill="none" stroke="#FFFFFF" stroke-linecap="round" stroke-miterlimit="10" d="M149.599,33.668"/>
	<path fill="none" stroke="#FFFFFF" stroke-linecap="round" stroke-miterlimit="10" d="M86.229,42.337"/>
	
		<line fill="none" stroke="#FFFFFF" stroke-linecap="round" stroke-miterlimit="10" x1="86.229" y1="42.337" x2="96.731" y2="74.657"/>
</g>
<g>
	<path fill="#FFFFFF" d="M43.393,280.555c-0.455,0-0.715-0.195-0.91-0.65l-6.5-15.08l-3.706,6.63v8.45c0,0.391-0.26,0.65-0.65,0.65
		h-1.885c-0.39,0-0.65-0.26-0.65-0.65v-42.901c0-0.39,0.26-0.649,0.65-0.649h1.885c0.39,0,0.65,0.26,0.65,0.649v29.251l8.906-16.056
		c0.26-0.455,0.455-0.649,0.91-0.649h2.145c0.39,0,0.585,0.26,0.39,0.649l-6.76,11.57l8.061,18.136c0.13,0.391-0.13,0.65-0.52,0.65
		H43.393z"/>
	<path fill="#FFFFFF" d="M56.626,280.75c-4.355-0.325-5.98-2.275-5.98-7.41v-36.337c0-0.39,0.26-0.649,0.65-0.649h1.885
		c0.39,0,0.65,0.26,0.65,0.649v36.727c0,2.47,0.78,3.51,2.86,3.9l0.325,0.064c0.455,0.065,0.65,0.261,0.65,0.65v1.82
		c0,0.39-0.195,0.649-0.585,0.585H56.626z"/>
	<path fill="#FFFFFF" d="M75.976,280.555c-0.39,0-0.65-0.26-0.65-0.65v-2.99h-0.065c-0.845,2.666-3.25,4.16-5.98,4.16
		c-3.835,0-7.15-2.34-7.15-8.97s3.38-9.23,8.775-9.23h4.03c0.26,0,0.39-0.13,0.39-0.39v-3.381c0-5.005-1.625-7.02-4.94-7.02
		c-2.47,0-4.095,0.845-5.46,2.274c-0.26,0.325-0.65,0.325-0.91,0.065l-0.91-1.365c-0.195-0.325-0.13-0.65,0.13-0.975
		c1.495-1.756,3.965-3.056,7.41-3.056c5.265,0,7.8,2.665,7.8,9.815v21.061c0,0.391-0.26,0.65-0.65,0.65H75.976z M75.326,271.065
		v-4.94c0-0.26-0.13-0.39-0.39-0.39h-3.705c-4.29,0-5.915,1.95-5.915,6.305c0,4.29,1.82,6.176,4.615,6.176
		C72.986,278.215,75.326,275.355,75.326,271.065z"/>
	<path fill="#FFFFFF" d="M98.966,280.555c-0.39,0-0.65-0.26-0.65-0.65v-20.931c0-4.485-1.495-6.89-5.005-6.89
		c-3.055,0-5.005,2.21-5.005,6.89v20.931c0,0.391-0.26,0.65-0.65,0.65h-1.885c-0.39,0-0.65-0.26-0.65-0.65v-29.706
		c0-0.39,0.26-0.649,0.65-0.649h1.885c0.39,0,0.65,0.26,0.65,0.649v2.535h0.065c0.845-2.015,2.666-3.705,5.916-3.705
		c4.875,0,7.215,3.12,7.215,9.426v21.45c0,0.391-0.26,0.65-0.65,0.65H98.966z"/>
	<path fill="#FFFFFF" d="M108.215,287.51c-0.065-0.325,0-0.649,0.325-0.78l1.819-0.649c0.391-0.195,0.716,0,0.846,0.39
		c0.715,2.146,2.535,3.25,4.615,3.25c3.12,0,5.07-1.819,5.07-5.85v-6.825h-0.065c-0.845,2.015-2.405,3.77-5.851,3.77
		c-3.51,0-5.59-1.755-6.63-5.005c-0.455-1.561-0.715-3.315-0.715-10.855c0-7.605,0.26-9.36,0.715-10.921
		c1.04-3.185,3.12-5.005,6.63-5.005c3.445,0,5.006,1.755,5.851,3.771h0.065v-2.601c0-0.39,0.26-0.649,0.649-0.649h1.885
		c0.391,0,0.65,0.26,0.65,0.649v33.347c0,6.175-3.185,9.23-8.255,9.23C112.18,292.776,109.125,290.826,108.215,287.51z
		 M120.241,274.51c0.39-1.17,0.65-2.471,0.65-9.556s-0.261-8.45-0.65-9.62c-0.715-2.08-2.21-3.25-4.42-3.25
		c-2.341,0-3.771,1.104-4.421,3.25c-0.39,1.17-0.585,2.535-0.585,9.62s0.195,8.386,0.585,9.556c0.65,2.145,2.08,3.25,4.421,3.25
		C118.031,277.76,119.526,276.59,120.241,274.51z"/>
	<path fill="#FFFFFF" d="M133.258,280.555c-0.39,0-0.649-0.26-0.649-0.65v-27.235c0-0.261-0.131-0.391-0.391-0.391h-1.885
		c-0.391,0-0.65-0.26-0.65-0.649v-1.431c0-0.39,0.26-0.649,0.65-0.649h1.885c0.26,0,0.391-0.13,0.391-0.391v-5.655
		c0-4.68,1.949-7.149,6.76-7.149h0.975c0.391,0,0.65,0.26,0.65,0.649v1.755c0,0.391-0.26,0.65-0.65,0.65h-1.364
		c-2.146,0-3.12,1.04-3.12,3.445v6.305c0,0.261,0.13,0.391,0.39,0.391h4.03c0.39,0,0.65,0.26,0.65,0.649v1.431
		c0,0.39-0.261,0.649-0.65,0.649h-4.03c-0.26,0-0.39,0.13-0.39,0.391v27.235c0,0.391-0.261,0.65-0.65,0.65H133.258z"/>
	<path fill="#FFFFFF" d="M158.882,280.555c-0.391,0-0.65-0.26-0.65-0.65v-2.99h-0.064c-0.846,2.666-3.25,4.16-5.98,4.16
		c-3.836,0-7.151-2.34-7.151-8.97s3.381-9.23,8.776-9.23h4.029c0.26,0,0.391-0.13,0.391-0.39v-3.381c0-5.005-1.625-7.02-4.939-7.02
		c-2.471,0-4.096,0.845-5.461,2.274c-0.26,0.325-0.65,0.325-0.91,0.065l-0.91-1.365c-0.195-0.325-0.13-0.65,0.13-0.975
		c1.495-1.756,3.965-3.056,7.411-3.056c5.266,0,7.801,2.665,7.801,9.815v21.061c0,0.391-0.262,0.65-0.65,0.65H158.882z
		 M158.231,271.065v-4.94c0-0.26-0.131-0.39-0.391-0.39h-3.705c-4.289,0-5.914,1.95-5.914,6.305c0,4.29,1.82,6.176,4.615,6.176
		C155.892,278.215,158.231,275.355,158.231,271.065z"/>
	<path fill="#FFFFFF" d="M167.052,273.34c-0.064-0.391,0.064-0.716,0.455-0.78l1.756-0.325c0.389-0.065,0.715,0.13,0.779,0.52
		c0.391,3.966,2.471,5.461,5.135,5.461c2.99,0,4.811-1.625,4.811-5.655c0-2.99-0.846-4.681-3.77-5.851l-2.73-1.04
		c-3.965-1.56-5.916-4.03-5.916-8.32c0-4.94,2.73-8.32,7.605-8.32c4.682,0,7.086,3.186,7.477,6.761
		c0.064,0.39-0.131,0.779-0.455,0.845l-1.561,0.325c-0.391,0.064-0.715-0.13-0.779-0.521c-0.521-2.665-1.887-4.55-4.746-4.55
		c-2.926,0-4.42,2.015-4.42,5.33c0,2.47,0.779,4.16,3.834,5.33l2.666,1.04c4.551,1.755,5.916,4.42,5.916,8.841
		c0,5.33-2.797,8.645-7.932,8.645C170.433,281.075,167.571,278.41,167.052,273.34z"/>
	<path fill="#FFFFFF" d="M188.306,273.34c-0.064-0.391,0.064-0.716,0.455-0.78l1.756-0.325c0.389-0.065,0.715,0.13,0.779,0.52
		c0.391,3.966,2.471,5.461,5.135,5.461c2.99,0,4.811-1.625,4.811-5.655c0-2.99-0.846-4.681-3.77-5.851l-2.73-1.04
		c-3.965-1.56-5.916-4.03-5.916-8.32c0-4.94,2.73-8.32,7.605-8.32c4.682,0,7.086,3.186,7.477,6.761
		c0.064,0.39-0.131,0.779-0.455,0.845l-1.561,0.325c-0.391,0.064-0.715-0.13-0.779-0.521c-0.521-2.665-1.887-4.55-4.746-4.55
		c-2.926,0-4.42,2.015-4.42,5.33c0,2.47,0.779,4.16,3.834,5.33l2.666,1.04c4.551,1.755,5.916,4.42,5.916,8.841
		c0,5.33-2.797,8.645-7.932,8.645C191.687,281.075,188.825,278.41,188.306,273.34z"/>
	<path fill="#FFFFFF" d="M223.491,280.555c-0.391,0-0.65-0.26-0.65-0.65v-2.99h-0.064c-0.846,2.666-3.25,4.16-5.98,4.16
		c-3.836,0-7.15-2.34-7.15-8.97s3.381-9.23,8.775-9.23h4.029c0.26,0,0.391-0.13,0.391-0.39v-3.381c0-5.005-1.625-7.02-4.939-7.02
		c-2.471,0-4.096,0.845-5.461,2.274c-0.26,0.325-0.65,0.325-0.91,0.065l-0.91-1.365c-0.195-0.325-0.129-0.65,0.131-0.975
		c1.494-1.756,3.965-3.056,7.41-3.056c5.266,0,7.801,2.665,7.801,9.815v21.061c0,0.391-0.262,0.65-0.65,0.65H223.491z
		 M222.841,271.065v-4.94c0-0.26-0.131-0.39-0.391-0.39h-3.705c-4.289,0-5.914,1.95-5.914,6.305c0,4.29,1.82,6.176,4.615,6.176
		C220.501,278.215,222.841,275.355,222.841,271.065z"/>
	<path fill="#FFFFFF" d="M232.856,276.135c-0.586-1.755-0.715-3.056-0.715-11.051c0-8.061,0.129-9.295,0.715-11.115
		c1.105-3.445,3.445-4.94,6.695-4.94c3.445,0,5.135,1.755,5.98,3.771h0.064v-15.796c0-0.39,0.26-0.649,0.65-0.649h1.885
		c0.391,0,0.65,0.26,0.65,0.649v42.901c0,0.391-0.26,0.65-0.65,0.65h-1.885c-0.391,0-0.65-0.26-0.65-0.65v-2.535h-0.064
		c-0.846,1.95-2.535,3.705-5.98,3.705C236.302,281.075,233.962,279.581,232.856,276.135z M244.946,274.77
		c0.455-1.365,0.65-2.34,0.65-9.686c0-7.345-0.195-8.32-0.65-9.75c-0.648-2.016-2.275-3.25-4.484-3.25
		c-2.275,0-3.836,1.04-4.551,3.25c-0.455,1.43-0.584,2.405-0.584,9.75c0,7.346,0.129,8.32,0.584,9.686
		c0.715,2.21,2.275,3.25,4.551,3.25C242.671,278.02,244.298,276.85,244.946,274.77z"/>
	<path fill="#FFFFFF" d="M270.81,265.735h-12.154c-0.262,0-0.391,0.13-0.391,0.39c0,6.37,0.26,7.605,0.584,8.71
		c0.717,2.146,2.275,3.186,4.355,3.186c2.666,0,4.16-1.235,5.006-4.29c0.131-0.455,0.391-0.585,0.779-0.455l1.756,0.39
		c0.324,0.065,0.52,0.325,0.391,0.78c-0.91,4.355-3.705,6.63-7.996,6.63c-3.641,0-6.24-1.819-7.346-5.265
		c-0.455-1.3-0.715-2.86-0.715-10.726s0.26-9.425,0.715-10.79c1.105-3.445,3.705-5.266,7.477-5.266c3.77,0,6.369,1.82,7.475,5.266
		c0.455,1.365,0.715,2.925,0.715,10.79C271.46,265.475,271.2,265.735,270.81,265.735z M268.274,262.485
		c0-5.07-0.26-6.306-0.584-7.216c-0.715-2.145-2.275-3.25-4.42-3.25c-2.146,0-3.705,1.105-4.422,3.25
		c-0.324,0.91-0.584,2.146-0.584,7.216c0,0.26,0.129,0.39,0.391,0.39h9.23C268.146,262.875,268.274,262.745,268.274,262.485z"/>
</g>
</svg>
