<?xml version="1.0" encoding="utf-8"?>
<!-- Generator: Adobe Illustrator 16.0.3, SVG Export Plug-In . SVG Version: 6.00 Build 0)  -->
<!DOCTYPE svg PUBLIC "-//W3C//DTD SVG 1.1//EN" "http://www.w3.org/Graphics/SVG/1.1/DTD/svg11.dtd">
<svg version="1.1" id="Ebene_1" xmlns="http://www.w3.org/2000/svg" xmlns:xlink="http://www.w3.org/1999/xlink" x="0px" y="0px"
	 width="145px" height="145px" viewBox="0 0 145 145" enable-background="new 0 0 145 145" xml:space="preserve">
<g>
	<g>
		<path fill="#444444" d="M141.242,74.957c-1.092,1.915-9.23,7.967-22.98,15.666c-16.131,9.033-36.229,20.331-49.168,29.878
			c-12.347,9.11-18.172,16.625-7.814,19.053c33.277-4.178,52.124-26.204,52.124-26.204c-9.428,13.992-20.079,22.021-30.66,26.256
			C138.636,132.245,141.242,74.957,141.242,74.957z"/>
		<g>
			<path fill="none" d="M61.28,139.554c0.002,0,0.004,0,0.006,0c-0.006-0.001-0.013-0.002-0.02-0.003
				C61.271,139.552,61.275,139.553,61.28,139.554z"/>
			<path fill="#444444" d="M67.574,118.441c2.071-1.527,4.325-3.101,6.711-4.7c-20.077,2.254-37.904-7.299-70.625-38.784
				c0,0,2.974,52.31,50.613,63.327c-0.375-0.59-0.634-1.234-0.778-1.934C52.567,131.834,56.909,126.311,67.574,118.441z"/>
		</g>
	</g>
</g>
<path fill="#444444" d="M72.684,102.764l-2.022-1.434c-0.161-0.113-16.15-11.446-22.5-15.675
	C35.768,77.4,28.369,63.593,28.369,48.72c0-24.453,19.895-44.348,44.349-44.348c24.454,0,44.349,19.895,44.349,44.348
	c0,14.178-6.865,27.614-18.363,35.941c-6.676,4.834-23.803,16.582-23.975,16.699L72.684,102.764z M72.718,11.483
	c-20.533,0-37.237,16.705-37.237,37.237c-0.001,12.488,6.213,24.083,16.623,31.017c5.136,3.42,16.094,11.142,20.644,14.358
	c4.754-3.271,16.552-11.404,21.786-15.193c9.657-6.994,15.422-18.276,15.422-30.182C109.955,28.188,93.25,11.483,72.718,11.483z"/>
</svg>
